<svg aria-hidden="true"  viewBox="0 0 32 32" version="1.1" xmlns="http://www.w3.org/2000/svg" xmlns:xlink="http://www.w3.org/1999/xlink">
<defs>

    <symbol id="apple" viewBox="0 0 24 32">
    <title>apple-brands</title>
    <path d="M19.669 16.794c-0.012-2.294 1.025-4.025 3.125-5.3-1.175-1.681-2.95-2.606-5.294-2.787-2.219-0.175-4.644 1.294-5.531 1.294-0.938 0-3.088-1.231-4.775-1.231-3.487 0.056-7.194 2.781-7.194 8.325 0 1.637 0.3 3.331 0.9 5.075 0.8 2.294 3.688 7.919 6.7 7.825 1.575-0.038 2.688-1.119 4.737-1.119 1.988 0 3.019 1.119 4.775 1.119 3.038-0.044 5.65-5.156 6.412-7.456-4.075-1.919-3.856-5.625-3.856-5.744zM16.131 6.531c1.706-2.025 1.55-3.869 1.5-4.531-1.506 0.087-3.25 1.025-4.244 2.181-1.094 1.237-1.738 2.769-1.6 4.494 1.631 0.125 3.119-0.713 4.344-2.144z"></path>
    </symbol>

    <symbol id="cloud-upload" viewBox="0 0 40 32">
    <title>cloud-upload-alt-solid</title>
    <path d="M33.6 14.162c0.256-0.669 0.4-1.4 0.4-2.162 0-3.313-2.688-6-6-6-1.231 0-2.381 0.375-3.331 1.013-1.731-3-4.963-5.013-8.669-5.013-5.525 0-10 4.475-10 10 0 0.169 0.006 0.338 0.013 0.506-3.5 1.231-6.013 4.569-6.013 8.494 0 4.969 4.031 9 9 9h23c4.419 0 8-3.581 8-8 0-3.869-2.75-7.1-6.4-7.838zM24.587 18h-4.087v7c0 0.55-0.45 1-1 1h-3c-0.55 0-1-0.45-1-1v-7h-4.088c-0.894 0-1.338-1.075-0.706-1.706l6.588-6.588c0.387-0.387 1.025-0.387 1.413 0l6.588 6.588c0.631 0.631 0.181 1.706-0.706 1.706z"></path>
    </symbol>

    <symbol id="dollar" viewBox="0 0 18 32">
    <title>dollar-sign-solid</title>
    <path d="M13.075 14.588l-6.75-1.975c-0.781-0.225-1.325-0.956-1.325-1.769 0-1.019 0.825-1.844 1.844-1.844h4.144c0.762 0 1.512 0.231 2.138 0.656 0.381 0.256 0.894 0.194 1.219-0.125l2.175-2.125c0.444-0.431 0.381-1.15-0.113-1.531-1.531-1.2-3.444-1.869-5.406-1.875v-3c0-0.55-0.45-1-1-1h-2c-0.55 0-1 0.45-1 1v3h-0.156c-3.981 0-7.181 3.419-6.813 7.475 0.263 2.881 2.462 5.225 5.237 6.037l6.406 1.875c0.781 0.231 1.325 0.956 1.325 1.769 0 1.019-0.825 1.844-1.844 1.844h-4.144c-0.763 0-1.513-0.231-2.138-0.656-0.381-0.256-0.894-0.194-1.219 0.125l-2.175 2.125c-0.444 0.431-0.381 1.15 0.113 1.531 1.531 1.2 3.444 1.869 5.406 1.875v3c0 0.55 0.45 1 1 1h2c0.55 0 1-0.45 1-1v-3.012c2.912-0.056 5.644-1.788 6.606-4.544 1.344-3.85-0.913-7.8-4.531-8.856z"></path>
    </symbol>

    <symbol id="facebook" viewBox="0 0 17 32">
    <title>facebook-f-brands</title>
    <path d="M4.794 32v-14.313h-4.794v-5.688h4.794v-4.481c0-4.869 2.975-7.519 7.319-7.519 2.081 0 3.869 0.156 4.387 0.225v5.088h-3.012c-2.363 0-2.819 1.125-2.819 2.769v3.919h5.331l-0.731 5.688h-4.6v14.313z"></path>
    </symbol>

    <symbol id="google-play" viewBox="0 0 32 32">
    <title>google-play-brands</title>
    <path d="M20.331 14.644l-13.794-13.831 17.55 10.075-3.756 3.756zM2.938 0c-0.813 0.425-1.356 1.2-1.356 2.206v27.581c0 1.006 0.544 1.781 1.356 2.206l16.038-16-16.038-15.994zM29.512 14.1l-3.681-2.131-4.106 4.031 4.106 4.031 3.756-2.131c1.125-0.894 1.125-2.906-0.075-3.8zM6.537 31.188l17.55-10.075-3.756-3.756-13.794 13.831z"></path>
    </symbol>

    <symbol id="google-plus" viewBox="0 0 40 32">
    <title>google-plus-g-brands</title>
    <path d="M24.129 14.281c0.115 0.606 0.196 1.211 0.196 1.997 0 6.86-4.6 11.722-11.525 11.722-6.63 0-12-5.37-12-12s5.37-12 12-12c3.241 0 5.943 1.179 8.038 3.143l-3.258 3.127c-0.884-0.851-2.439-1.85-4.78-1.85-4.093 0-7.433 3.389-7.433 7.58s3.34 7.58 7.433 7.58c4.748 0 6.532-3.422 6.81-5.173h-6.81v-4.126h11.329zM35.717 14.683v-3.483h-3.5v3.483h-3.483v3.5h3.483v3.483h3.5v-3.483h3.483v-3.5h-3.483z"></path>
    </symbol>

    <symbol id="sign-in" viewBox="0 0 32 32">
    <title>sign-in-alt-solid</title>
    <path d="M26 28h-5.25c-0.413 0-0.75-0.337-0.75-0.75v-2.5c0-0.413 0.337-0.75 0.75-0.75h5.25c1.106 0 2-0.894 2-2v-12c0-1.106-0.894-2-2-2h-5.25c-0.413 0-0.75-0.338-0.75-0.75v-2.5c0-0.412 0.337-0.75 0.75-0.75h5.25c3.313 0 6 2.688 6 6v12c0 3.313-2.688 6-6 6zM23.063 15.438l-10.5-10.5c-0.938-0.938-2.563-0.281-2.563 1.063v6h-8.5c-0.831 0-1.5 0.669-1.5 1.5v6c0 0.831 0.669 1.5 1.5 1.5h8.5v6c0 1.344 1.625 2 2.563 1.063l10.5-10.5c0.581-0.587 0.581-1.538 0-2.125z"></path>
    </symbol>

    <symbol id="twitter" viewBox="0 0 32 32">
    <title>twitter-brands</title>
    <path d="M28.711 9.482c0.020 0.284 0.020 0.569 0.020 0.853 0 8.67-6.599 18.66-18.66 18.66-3.716 0-7.168-1.076-10.071-2.944 0.528 0.061 1.036 0.081 1.584 0.081 3.066 0 5.888-1.035 8.142-2.802-2.883-0.061-5.3-1.949-6.132-4.548 0.406 0.061 0.812 0.102 1.239 0.102 0.589 0 1.178-0.081 1.726-0.223-3.005-0.609-5.259-3.249-5.259-6.437v-0.081c0.873 0.487 1.888 0.792 2.964 0.832-1.766-1.178-2.924-3.188-2.924-5.462 0-1.218 0.325-2.335 0.893-3.31 3.228 3.98 8.081 6.579 13.523 6.863-0.101-0.487-0.162-0.995-0.162-1.502 0-3.614 2.924-6.558 6.558-6.558 1.888 0 3.594 0.792 4.792 2.071 1.482-0.284 2.904-0.832 4.162-1.584-0.487 1.523-1.523 2.802-2.883 3.614 1.32-0.142 2.599-0.508 3.777-1.015-0.893 1.299-2.010 2.457-3.289 3.391z"></path>
    </symbol>

</defs>
</svg>
